<?xml version="1.0" standalone="no"?>
<!DOCTYPE svg PUBLIC "-//W3C//DTD SVG 20010904//EN"
 "http://www.w3.org/TR/2001/REC-SVG-20010904/DTD/svg10.dtd">
<svg version="1.0" xmlns="http://www.w3.org/2000/svg"
 width="285.000000pt" height="285.000000pt" viewBox="0 0 285.000000 285.000000"
 preserveAspectRatio="xMidYMid meet">
<metadata>
Created by potrace 1.11, written by Peter Selinger 2001-2013
</metadata>
<g transform="translate(0.000000,285.000000) scale(0.100000,-0.100000)"
fill="#000000" stroke="none">
<path d="M1570 2699 c-25 -4 -92 -8 -149 -9 -119 -3 -195 -20 -266 -60 -27
-15 -65 -30 -83 -34 -18 -3 -56 -16 -85 -30 -28 -13 -63 -29 -77 -35 -62 -28
-190 -115 -199 -135 -2 -4 -13 -16 -25 -26 -11 -10 -52 -44 -89 -75 -37 -31
-85 -80 -106 -108 -73 -99 -112 -131 -194 -161 -97 -35 -148 -72 -171 -124
-24 -53 -13 -97 50 -203 l44 -74 -5 -125 c-2 -69 0 -145 6 -170 5 -25 16 -76
25 -115 27 -124 84 -305 103 -330 5 -5 11 -26 15 -45 3 -20 22 -59 41 -89 19
-29 35 -57 35 -62 0 -5 5 -9 10 -9 6 0 10 -7 10 -15 0 -8 34 -49 76 -92 41
-42 82 -89 89 -103 24 -46 150 -156 210 -184 94 -43 136 -54 246 -66 57 -6
118 -15 134 -20 17 -5 75 -12 130 -15 55 -3 127 -7 160 -11 33 -3 92 0 130 6
39 7 84 14 100 17 57 8 221 69 269 99 27 16 64 43 85 60 20 17 56 44 81 61 86
59 259 263 307 363 7 14 26 48 43 75 17 28 34 59 39 70 5 11 25 56 46 100 98
214 110 423 35 645 -11 32 -20 72 -20 87 0 36 -29 151 -47 186 -8 16 -16 37
-18 47 -4 19 -24 50 -105 165 -27 39 -50 75 -50 82 0 6 -3 13 -8 15 -4 2 -21
22 -37 44 -35 49 -90 96 -166 144 -30 19 -58 40 -62 47 -4 7 -12 13 -17 13 -5
0 -35 16 -67 35 -32 19 -85 41 -117 50 -33 8 -101 35 -150 59 -112 54 -149 64
-206 55z"/>
</g>
</svg>
